<?xml version="1.0" encoding="utf-8"?>
<!-- Generator: Adobe Illustrator 15.0.0, SVG Export Plug-In . SVG Version: 6.00 Build 0)  -->
<!DOCTYPE svg PUBLIC "-//W3C//DTD SVG 1.1//EN" "http://www.w3.org/Graphics/SVG/1.1/DTD/svg11.dtd">
<svg version="1.1" id="Layer_1" xmlns="http://www.w3.org/2000/svg" xmlns:xlink="http://www.w3.org/1999/xlink" x="0px" y="0px"
	 width="40px" height="40px" viewBox="0 0 40 40" enable-background="new 0 0 40 40" xml:space="preserve">
<rect x="0" y="13.627" fill="none" width="42.834" height="27.012"/>
<g enable-background="new    ">
	<path d="M0.882,12.445h2.989l2.627,8.365l2.844-8.401h2.392l2.845,8.401l2.626-8.365h2.917l-4.33,12.443h-2.427l-2.863-8.084
		L7.64,24.889H5.212L0.882,12.445z"/>
</g>
<g enable-background="new    ">
	<path d="M18.776,23l1.649-1.924c1.14,0.918,2.337,1.5,3.785,1.5c1.143,0,1.83-0.441,1.83-1.164v-0.035
		c0-0.689-0.434-1.043-2.553-1.572c-2.556-0.637-4.204-1.324-4.204-3.778v-0.035c0-2.242,1.848-3.724,4.437-3.724
		c1.85,0,3.426,0.565,4.713,1.57l-1.449,2.048c-1.125-0.759-2.229-1.218-3.297-1.218c-1.07,0-1.631,0.477-1.631,1.077v0.034
		c0,0.813,0.541,1.077,2.734,1.625c2.572,0.653,4.021,1.553,4.021,3.707v0.035c0,2.453-1.92,3.83-4.656,3.83
		C22.235,24.977,20.298,24.324,18.776,23z"/>
</g>
<g enable-background="new    ">
	<path d="M32.47,14.951H28.61v-2.505h10.508v2.505h-3.859v9.848H32.47V14.951z"/>
</g>
</svg>
