<?xml version="1.0" encoding="utf-8"?>
<!-- Generator: Adobe Illustrator 15.0.0, SVG Export Plug-In . SVG Version: 6.00 Build 0)  -->
<!DOCTYPE svg PUBLIC "-//W3C//DTD SVG 1.1//EN" "http://www.w3.org/Graphics/SVG/1.1/DTD/svg11.dtd">
<svg version="1.1" id="Layer_1" xmlns="http://www.w3.org/2000/svg" xmlns:xlink="http://www.w3.org/1999/xlink" x="0px" y="0px"
	 width="200px" height="40px" viewBox="0 0 200 40" enable-background="new 0 0 200 40" xml:space="preserve">
<rect x="14.417" y="6.499" fill="none" width="169.837" height="37.587"/>
<g enable-background="new    ">
	<path d="M33.626,9.247h-3.409V6.975h9.284v2.272h-3.41v8.932h-2.465V9.247z"/>
</g>
<g enable-background="new    ">
	<path d="M40.426,6.975h2.465v4.434h4.546V6.975h2.465v11.204h-2.465v-4.498h-4.546v4.498h-2.465V6.975z"/>
</g>
<g enable-background="new    ">
	<path d="M50.985,6.975h8.451v2.192h-6.002v2.273h5.282v2.192h-5.282v2.353h6.083v2.193h-8.531V6.975z"/>
</g>
<g enable-background="new    ">
	<path d="M63.401,6.975h2.641l2.321,7.587l2.513-7.619h2.113l2.513,7.619l2.321-7.587H80.4l-3.826,11.284H74.43L71.9,10.928
		l-2.529,7.331h-2.145L63.401,6.975z"/>
</g>
<g enable-background="new    ">
	<path d="M82.379,6.895h2.273l4.802,11.284h-2.577l-1.024-2.513h-4.738l-1.024,2.513h-2.513L82.379,6.895z M84.973,13.489
		l-1.489-3.634l-1.489,3.634H84.973z"/>
</g>
<g enable-background="new    ">
	<path d="M88.969,16.546l1.457-1.744c1.008,0.832,2.065,1.36,3.345,1.36c1.009,0,1.617-0.4,1.617-1.057v-0.032
		c0-0.624-0.384-0.944-2.257-1.425c-2.257-0.576-3.713-1.2-3.713-3.425v-0.032c0-2.033,1.633-3.377,3.921-3.377
		c1.633,0,3.025,0.512,4.162,1.424l-1.281,1.857c-0.992-0.688-1.969-1.104-2.913-1.104s-1.44,0.432-1.44,0.977v0.031
		c0,0.736,0.48,0.977,2.417,1.473c2.272,0.593,3.553,1.409,3.553,3.361v0.032c0,2.225-1.697,3.474-4.114,3.474
		C92.026,18.339,90.313,17.746,88.969,16.546z"/>
</g>
<g enable-background="new    ">
	<path d="M98.697,6.975h2.465v4.434h4.546V6.975h2.465v11.204h-2.465v-4.498h-4.546v4.498h-2.465V6.975z"/>
</g>
<g enable-background="new    ">
	<path d="M109.369,6.975h2.465v11.204h-2.465V6.975z"/>
</g>
<g enable-background="new    ">
	<path d="M113.354,6.975h2.273l5.25,6.898V6.975h2.433v11.204h-2.097l-5.427-7.123v7.123h-2.433V6.975z"/>
</g>
<g enable-background="new    ">
	<path d="M124.537,12.608v-0.032c0-3.185,2.48-5.794,5.874-5.794c2.017,0,3.233,0.544,4.401,1.536l-1.553,1.873
		c-0.863-0.72-1.632-1.137-2.929-1.137c-1.792,0-3.218,1.585-3.218,3.489v0.032c0,2.049,1.409,3.554,3.395,3.554
		c0.896,0,1.696-0.224,2.32-0.672v-1.601h-2.48v-2.129h4.865v4.865c-1.152,0.977-2.736,1.777-4.785,1.777
		C126.938,18.371,124.537,15.922,124.537,12.608z"/>
</g>
<g enable-background="new    ">
	<path d="M139.066,9.247h-3.41V6.975h9.284v2.272h-3.409v8.932h-2.465V9.247z"/>
</g>
<g enable-background="new    ">
	<path d="M144.889,12.608v-0.032c0-3.185,2.514-5.794,5.971-5.794c3.458,0,5.939,2.577,5.939,5.762v0.032
		c0,3.186-2.514,5.795-5.971,5.795C147.37,18.371,144.889,15.794,144.889,12.608z M154.221,12.608v-0.032
		c0-1.921-1.408-3.521-3.393-3.521c-1.985,0-3.361,1.569-3.361,3.489v0.032c0,1.921,1.408,3.521,3.393,3.521
		C152.845,16.098,154.221,14.529,154.221,12.608z"/>
</g>
<g enable-background="new    ">
	<path d="M157.706,6.975h2.272l5.25,6.898V6.975h2.434v11.204h-2.098l-5.426-7.123v7.123h-2.433V6.975z"/>
</g>
<g enable-background="new    ">
	<path d="M52.208,30.946l1.457-1.744c1.008,0.832,2.065,1.36,3.345,1.36c1.009,0,1.617-0.4,1.617-1.057v-0.032
		c0-0.624-0.384-0.944-2.257-1.425c-2.257-0.576-3.713-1.2-3.713-3.425v-0.032c0-2.033,1.633-3.377,3.921-3.377
		c1.633,0,3.025,0.512,4.162,1.424l-1.281,1.857c-0.992-0.688-1.969-1.104-2.913-1.104s-1.44,0.432-1.44,0.977v0.031
		c0,0.736,0.48,0.977,2.417,1.473c2.272,0.593,3.553,1.409,3.553,3.361v0.032c0,2.225-1.697,3.474-4.114,3.474
		C55.265,32.739,53.553,32.146,52.208,30.946z"/>
</g>
<g enable-background="new    ">
	<path d="M64.625,23.647h-3.409v-2.272H70.5v2.272h-3.41v8.932h-2.465V23.647z"/>
	<path d="M72.786,21.295h2.273l4.802,11.284h-2.577l-1.024-2.513h-4.738l-1.024,2.513h-2.513L72.786,21.295z M75.379,27.89
		l-1.489-3.634l-1.489,3.634H75.379z"/>
</g>
<g enable-background="new    ">
	<path d="M82.194,23.647h-3.409v-2.272h9.284v2.272h-3.41v8.932h-2.465V23.647z"/>
</g>
<g enable-background="new    ">
	<path d="M88.992,21.375h8.451v2.192h-6.002v2.273h5.282v2.192h-5.282v2.353h6.083v2.193h-8.531V21.375z"/>
</g>
<g enable-background="new    ">
	<path d="M105.201,23.647h-3.408v-2.272h9.283v2.272h-3.41v8.932h-2.465V23.647z"/>
</g>
<g enable-background="new    ">
	<path d="M112.111,21.375h2.465v11.204h-2.465V21.375z"/>
</g>
<g enable-background="new    ">
	<path d="M115.776,21.375h2.657l2.945,4.737l2.945-4.737h2.656v11.204h-2.449v-7.315l-3.152,4.786h-0.064l-3.121-4.737v7.267h-2.417
		V21.375z"/>
</g>
<g enable-background="new    ">
	<path d="M128.384,21.375h8.451v2.192h-6.003v2.273h5.283v2.192h-5.283v2.353h6.083v2.193h-8.531V21.375z"/>
</g>
<g enable-background="new    ">
	<path d="M137.375,30.946l1.457-1.744c1.008,0.832,2.064,1.36,3.345,1.36c1.009,0,1.616-0.4,1.616-1.057v-0.032
		c0-0.624-0.383-0.944-2.256-1.425c-2.258-0.576-3.714-1.2-3.714-3.425v-0.032c0-2.033,1.633-3.377,3.921-3.377
		c1.633,0,3.025,0.512,4.162,1.424l-1.28,1.857c-0.992-0.688-1.969-1.104-2.913-1.104s-1.44,0.432-1.44,0.977v0.031
		c0,0.736,0.479,0.977,2.417,1.473c2.272,0.593,3.553,1.409,3.553,3.361v0.032c0,2.225-1.696,3.474-4.113,3.474
		C140.432,32.739,138.72,32.146,137.375,30.946z"/>
</g>
</svg>
